<svg xmlns="http://www.w3.org/2000/svg" width="1000" height="400" font-family="-apple-system,Helvetica,Arial,sans-serif"><rect width="1000" height="400" fill="#fbfbfd"/><text x="26" y="40" font-size="22" font-weight="700" fill="#1d1d1f">GPU time per kernel — one decode token (155 ms)</text><text x="26" y="62" font-size="13" fill="#86868b">chat-wgpu · sorted by total GPU time</text><text x="158" y="112" font-size="15" text-anchor="end" font-weight="600" fill="#1d1d1f">attention</text><rect x="170" y="92" width="600.0" height="28" rx="4" fill="#e4572e"/><text x="780.0" y="112" font-size="14" fill="#1d1d1f">116.9 ms · 75% · 28 passes · 4176 µs/pass</text><text x="158" y="160" font-size="15" text-anchor="end" font-weight="600" fill="#1d1d1f">rmsnorm</text><rect x="170" y="140" width="97.5" height="28" rx="4" fill="#f2a900"/><text x="277.5" y="160" font-size="14" fill="#1d1d1f">19.0 ms · 12% · 113 passes · 168 µs/pass</text><text x="158" y="208" font-size="15" text-anchor="end" font-weight="600" fill="#1d1d1f">q4_gemv</text><rect x="170" y="188" width="94.3" height="28" rx="4" fill="#2e86e4"/><text x="274.3" y="208" font-size="14" fill="#1d1d1f">18.4 ms · 12% · 197 passes · 93 µs/pass</text><text x="158" y="256" font-size="15" text-anchor="end" font-weight="600" fill="#1d1d1f">rope</text><rect x="170" y="236" width="4.2" height="28" rx="4" fill="#9aa0a6"/><text x="184.2" y="256" font-size="14" fill="#1d1d1f">0.8 ms · 1% · 56 passes · 15 µs/pass</text><text x="158" y="304" font-size="15" text-anchor="end" font-weight="600" fill="#1d1d1f">ewise_add</text><rect x="170" y="284" width="1.1" height="28" rx="4" fill="#9aa0a6"/><text x="181.1" y="304" font-size="14" fill="#1d1d1f">0.2 ms · 0% · 57 passes · 4 µs/pass</text><text x="158" y="352" font-size="15" text-anchor="end" font-weight="600" fill="#1d1d1f">swiglu</text><rect x="170" y="332" width="0.6" height="28" rx="4" fill="#9aa0a6"/><text x="180.6" y="352" font-size="14" fill="#1d1d1f">0.1 ms · 0% · 28 passes · 4 µs/pass</text></svg>